<?xml version="1.0" encoding="UTF-8"?>
<!DOCTYPE svg PUBLIC "-//W3C//DTD SVG 1.1//EN" "http://www.w3.org/Graphics/SVG/1.1/DTD/svg11.dtd">
<!-- Creator: CorelDRAW -->
<svg xmlns="http://www.w3.org/2000/svg" xml:space="preserve" width="200mm" height="200mm" version="1.1" style="shape-rendering:geometricPrecision; text-rendering:geometricPrecision; image-rendering:optimizeQuality; fill-rule:evenodd; clip-rule:evenodd"
viewBox="0 0 20000 20000"
 xmlns:xlink="http://www.w3.org/1999/xlink"
 xmlns:xodm="http://www.corel.com/coreldraw/odm/2003">
 <defs>
  <style type="text/css">
   <![CDATA[
    .fil0 {fill:#01DECC}
    .fil1 {fill:#1B140E}
   ]]>
  </style>
 </defs>
 <g id="Capa_x0020_1">
  <metadata id="CorelCorpID_0Corel-Layer"/>
  <g id="_2216533909968">
   <rect class="fil0" x="-7.6" y="7.6" width="1000" height="1000"/>
   <rect class="fil0" x="1992.4" y="7.6" width="1000" height="1000"/>
   <rect class="fil0" x="3992.4" y="7.6" width="1000" height="1000"/>
   <rect class="fil0" x="5992.4" y="7.6" width="1000" height="1000"/>
   <rect class="fil0" x="7992.4" y="7.6" width="1000" height="1000"/>
   <rect class="fil0" x="9992.4" y="7.6" width="1000" height="1000"/>
   <rect class="fil0" x="11992.4" y="7.6" width="1000" height="1000"/>
   <rect class="fil0" x="13992.4" y="7.6" width="1000" height="1000"/>
   <rect class="fil0" x="15992.4" y="7.6" width="1000" height="1000"/>
   <rect class="fil0" x="17992.4" y="7.6" width="1000" height="1000"/>
   <rect class="fil0" x="-7.6" y="2007.6" width="1000" height="1000"/>
   <rect class="fil0" x="1992.4" y="2007.6" width="1000" height="1000"/>
   <rect class="fil0" x="3992.4" y="2007.6" width="1000" height="1000"/>
   <rect class="fil0" x="5992.4" y="2007.6" width="1000" height="1000"/>
   <rect class="fil0" x="7992.4" y="2007.6" width="1000" height="1000"/>
   <rect class="fil0" x="9992.4" y="2007.6" width="1000" height="1000"/>
   <rect class="fil0" x="11992.4" y="2007.6" width="1000" height="1000"/>
   <rect class="fil0" x="13992.4" y="2007.6" width="1000" height="1000"/>
   <rect class="fil0" x="15992.4" y="2007.6" width="1000" height="1000"/>
   <rect class="fil0" x="17992.4" y="2007.6" width="1000" height="1000"/>
   <rect class="fil0" x="-7.6" y="4007.6" width="1000" height="1000"/>
   <rect class="fil0" x="1992.4" y="4007.6" width="1000" height="1000"/>
   <rect class="fil0" x="3992.4" y="4007.6" width="1000" height="1000"/>
   <rect class="fil0" x="5992.4" y="4007.6" width="1000" height="1000"/>
   <rect class="fil0" x="7992.4" y="4007.6" width="1000" height="1000"/>
   <rect class="fil0" x="9992.4" y="4007.6" width="1000" height="1000"/>
   <rect class="fil0" x="11992.4" y="4007.6" width="1000" height="1000"/>
   <rect class="fil0" x="13992.4" y="4007.6" width="1000" height="1000"/>
   <rect class="fil0" x="15992.4" y="4007.6" width="1000" height="1000"/>
   <rect class="fil0" x="17992.4" y="4007.6" width="1000" height="1000"/>
   <rect class="fil0" x="-7.6" y="6007.6" width="1000" height="1000"/>
   <rect class="fil0" x="1992.4" y="6007.6" width="1000" height="1000"/>
   <rect class="fil0" x="3992.4" y="6007.6" width="1000" height="1000"/>
   <rect class="fil0" x="5992.4" y="6007.6" width="1000" height="1000"/>
   <rect class="fil0" x="7992.4" y="6007.6" width="1000" height="1000"/>
   <rect class="fil0" x="9992.4" y="6007.6" width="1000" height="1000"/>
   <rect class="fil0" x="11992.4" y="6007.6" width="1000" height="1000"/>
   <rect class="fil0" x="13992.4" y="6007.6" width="1000" height="1000"/>
   <rect class="fil0" x="15992.4" y="6007.6" width="1000" height="1000"/>
   <rect class="fil0" x="17992.4" y="6007.6" width="1000" height="1000"/>
   <rect class="fil0" x="-7.6" y="8007.6" width="1000" height="1000"/>
   <rect class="fil0" x="1992.4" y="8007.6" width="1000" height="1000"/>
   <rect class="fil0" x="3992.4" y="8007.6" width="1000" height="1000"/>
   <rect class="fil0" x="5992.4" y="8007.6" width="1000" height="1000"/>
   <rect class="fil0" x="7992.4" y="8007.6" width="1000" height="1000"/>
   <rect class="fil0" x="9992.4" y="8007.6" width="1000" height="1000"/>
   <rect class="fil0" x="11992.4" y="8007.6" width="1000" height="1000"/>
   <rect class="fil0" x="13992.4" y="8007.6" width="1000" height="1000"/>
   <rect class="fil0" x="15992.4" y="8007.6" width="1000" height="1000"/>
   <rect class="fil0" x="17992.4" y="8007.6" width="1000" height="1000"/>
   <rect class="fil0" x="-7.6" y="10007.6" width="1000" height="1000"/>
   <rect class="fil0" x="1992.4" y="10007.6" width="1000" height="1000"/>
   <rect class="fil0" x="3992.4" y="10007.6" width="1000" height="1000"/>
   <rect class="fil0" x="5992.4" y="10007.6" width="1000" height="1000"/>
   <rect class="fil0" x="7992.4" y="10007.6" width="1000" height="1000"/>
   <rect class="fil0" x="9992.4" y="10007.6" width="1000" height="1000"/>
   <rect class="fil0" x="11992.4" y="10007.6" width="1000" height="1000"/>
   <rect class="fil0" x="13992.4" y="10007.6" width="1000" height="1000"/>
   <rect class="fil0" x="15992.4" y="10007.6" width="1000" height="1000"/>
   <rect class="fil0" x="17992.4" y="10007.6" width="1000" height="1000"/>
   <rect class="fil0" x="-7.6" y="12007.6" width="1000" height="1000"/>
   <rect class="fil0" x="1992.4" y="12007.6" width="1000" height="1000"/>
   <rect class="fil0" x="3992.4" y="12007.6" width="1000" height="1000"/>
   <rect class="fil0" x="5992.4" y="12007.6" width="1000" height="1000"/>
   <rect class="fil0" x="7992.4" y="12007.6" width="1000" height="1000"/>
   <rect class="fil0" x="9992.4" y="12007.6" width="1000" height="1000"/>
   <rect class="fil0" x="11992.4" y="12007.6" width="1000" height="1000"/>
   <rect class="fil0" x="13992.4" y="12007.6" width="1000" height="1000"/>
   <rect class="fil0" x="15992.4" y="12007.6" width="1000" height="1000"/>
   <rect class="fil0" x="17992.4" y="12007.6" width="1000" height="1000"/>
   <rect class="fil0" x="-7.6" y="14007.6" width="1000" height="1000"/>
   <rect class="fil0" x="1992.4" y="14007.6" width="1000" height="1000"/>
   <rect class="fil0" x="3992.4" y="14007.6" width="1000" height="1000"/>
   <rect class="fil0" x="5992.4" y="14007.6" width="1000" height="1000"/>
   <rect class="fil0" x="7992.4" y="14007.6" width="1000" height="1000"/>
   <rect class="fil0" x="9992.4" y="14007.6" width="1000" height="1000"/>
   <rect class="fil0" x="11992.4" y="14007.6" width="1000" height="1000"/>
   <rect class="fil0" x="13992.4" y="14007.6" width="1000" height="1000"/>
   <rect class="fil0" x="15992.4" y="14007.6" width="1000" height="1000"/>
   <rect class="fil0" x="17992.4" y="14007.6" width="1000" height="1000"/>
   <rect class="fil0" x="-7.6" y="16007.6" width="1000" height="1000"/>
   <rect class="fil0" x="1992.4" y="16007.6" width="1000" height="1000"/>
   <rect class="fil0" x="3992.4" y="16007.6" width="1000" height="1000"/>
   <rect class="fil0" x="5992.4" y="16007.6" width="1000" height="1000"/>
   <rect class="fil0" x="7992.4" y="16007.6" width="1000" height="1000"/>
   <rect class="fil0" x="9992.4" y="16007.6" width="1000" height="1000"/>
   <rect class="fil0" x="11992.4" y="16007.6" width="1000" height="1000"/>
   <rect class="fil0" x="13992.4" y="16007.6" width="1000" height="1000"/>
   <rect class="fil0" x="15992.4" y="16007.6" width="1000" height="1000"/>
   <rect class="fil0" x="17992.4" y="16007.6" width="1000" height="1000"/>
   <rect class="fil0" x="-7.6" y="18007.6" width="1000" height="1000"/>
   <rect class="fil0" x="1992.4" y="18007.6" width="1000" height="1000"/>
   <rect class="fil0" x="3992.4" y="18007.6" width="1000" height="1000"/>
   <rect class="fil0" x="5992.4" y="18007.6" width="1000" height="1000"/>
   <rect class="fil0" x="7992.4" y="18007.6" width="1000" height="1000"/>
   <rect class="fil0" x="9992.4" y="18007.6" width="1000" height="1000"/>
   <rect class="fil0" x="11992.4" y="18007.6" width="1000" height="1000"/>
   <rect class="fil0" x="13992.4" y="18007.6" width="1000" height="1000"/>
   <rect class="fil0" x="15992.4" y="18007.6" width="1000" height="1000"/>
   <rect class="fil0" x="17992.4" y="18007.6" width="1000" height="1000"/>
   <rect class="fil1" x="-7.6" y="1007.6" width="1000" height="1000"/>
   <rect class="fil1" x="1992.4" y="1007.6" width="1000" height="1000"/>
   <rect class="fil1" x="3992.4" y="1007.6" width="1000" height="1000"/>
   <rect class="fil1" x="5992.4" y="1007.6" width="1000" height="1000"/>
   <rect class="fil1" x="7992.4" y="1007.6" width="1000" height="1000"/>
   <rect class="fil1" x="9992.4" y="1007.6" width="1000" height="1000"/>
   <rect class="fil1" x="11992.4" y="1007.6" width="1000" height="1000"/>
   <rect class="fil1" x="13992.4" y="1007.6" width="1000" height="1000"/>
   <rect class="fil1" x="15992.4" y="1007.6" width="1000" height="1000"/>
   <rect class="fil1" x="17992.4" y="1007.6" width="1000" height="1000"/>
   <rect class="fil1" x="-7.6" y="3007.6" width="1000" height="1000"/>
   <rect class="fil1" x="1992.4" y="3007.6" width="1000" height="1000"/>
   <rect class="fil1" x="3992.4" y="3007.6" width="1000" height="1000"/>
   <rect class="fil1" x="5992.4" y="3007.6" width="1000" height="1000"/>
   <rect class="fil1" x="7992.4" y="3007.6" width="1000" height="1000"/>
   <rect class="fil1" x="9992.4" y="3007.6" width="1000" height="1000"/>
   <rect class="fil1" x="11992.4" y="3007.6" width="1000" height="1000"/>
   <rect class="fil1" x="13992.4" y="3007.6" width="1000" height="1000"/>
   <rect class="fil1" x="15992.4" y="3007.6" width="1000" height="1000"/>
   <rect class="fil1" x="17992.4" y="3007.6" width="1000" height="1000"/>
   <rect class="fil1" x="-7.6" y="5007.6" width="1000" height="1000"/>
   <rect class="fil1" x="1992.4" y="5007.6" width="1000" height="1000"/>
   <rect class="fil1" x="3992.4" y="5007.6" width="1000" height="1000"/>
   <rect class="fil1" x="5992.4" y="5007.6" width="1000" height="1000"/>
   <rect class="fil1" x="7992.4" y="5007.6" width="1000" height="1000"/>
   <rect class="fil1" x="9992.4" y="5007.6" width="1000" height="1000"/>
   <rect class="fil1" x="11992.4" y="5007.6" width="1000" height="1000"/>
   <rect class="fil1" x="13992.4" y="5007.6" width="1000" height="1000"/>
   <rect class="fil1" x="15992.4" y="5007.6" width="1000" height="1000"/>
   <rect class="fil1" x="17992.4" y="5007.6" width="1000" height="1000"/>
   <rect class="fil1" x="-7.6" y="7007.6" width="1000" height="1000"/>
   <rect class="fil1" x="1992.4" y="7007.6" width="1000" height="1000"/>
   <rect class="fil1" x="3992.4" y="7007.6" width="1000" height="1000"/>
   <rect class="fil1" x="5992.4" y="7007.6" width="1000" height="1000"/>
   <rect class="fil1" x="7992.4" y="7007.6" width="1000" height="1000"/>
   <rect class="fil1" x="9992.4" y="7007.6" width="1000" height="1000"/>
   <rect class="fil1" x="11992.4" y="7007.6" width="1000" height="1000"/>
   <rect class="fil1" x="13992.4" y="7007.6" width="1000" height="1000"/>
   <rect class="fil1" x="15992.4" y="7007.6" width="1000" height="1000"/>
   <rect class="fil1" x="17992.4" y="7007.6" width="1000" height="1000"/>
   <rect class="fil1" x="-7.6" y="9007.6" width="1000" height="1000"/>
   <rect class="fil1" x="1992.4" y="9007.6" width="1000" height="1000"/>
   <rect class="fil1" x="3992.4" y="9007.6" width="1000" height="1000"/>
   <rect class="fil1" x="5992.4" y="9007.6" width="1000" height="1000"/>
   <rect class="fil1" x="7992.4" y="9007.6" width="1000" height="1000"/>
   <rect class="fil1" x="9992.4" y="9007.6" width="1000" height="1000"/>
   <rect class="fil1" x="11992.4" y="9007.6" width="1000" height="1000"/>
   <rect class="fil1" x="13992.4" y="9007.6" width="1000" height="1000"/>
   <rect class="fil1" x="15992.4" y="9007.6" width="1000" height="1000"/>
   <rect class="fil1" x="17992.4" y="9007.6" width="1000" height="1000"/>
   <rect class="fil1" x="-7.6" y="11007.6" width="1000" height="1000"/>
   <rect class="fil1" x="1992.4" y="11007.6" width="1000" height="1000"/>
   <rect class="fil1" x="3992.4" y="11007.6" width="1000" height="1000"/>
   <rect class="fil1" x="5992.4" y="11007.6" width="1000" height="1000"/>
   <rect class="fil1" x="7992.4" y="11007.6" width="1000" height="1000"/>
   <rect class="fil1" x="9992.4" y="11007.6" width="1000" height="1000"/>
   <rect class="fil1" x="11992.4" y="11007.6" width="1000" height="1000"/>
   <rect class="fil1" x="13992.4" y="11007.6" width="1000" height="1000"/>
   <rect class="fil1" x="15992.4" y="11007.6" width="1000" height="1000"/>
   <rect class="fil1" x="17992.4" y="11007.6" width="1000" height="1000"/>
   <rect class="fil1" x="-7.6" y="13007.6" width="1000" height="1000"/>
   <rect class="fil1" x="1992.4" y="13007.6" width="1000" height="1000"/>
   <rect class="fil1" x="3992.4" y="13007.6" width="1000" height="1000"/>
   <rect class="fil1" x="5992.4" y="13007.6" width="1000" height="1000"/>
   <rect class="fil1" x="7992.4" y="13007.6" width="1000" height="1000"/>
   <rect class="fil1" x="9992.4" y="13007.6" width="1000" height="1000"/>
   <rect class="fil1" x="11992.4" y="13007.6" width="1000" height="1000"/>
   <rect class="fil1" x="13992.4" y="13007.6" width="1000" height="1000"/>
   <rect class="fil1" x="15992.4" y="13007.6" width="1000" height="1000"/>
   <rect class="fil1" x="17992.4" y="13007.6" width="1000" height="1000"/>
   <rect class="fil1" x="-7.6" y="15007.6" width="1000" height="1000"/>
   <rect class="fil1" x="1992.4" y="15007.6" width="1000" height="1000"/>
   <rect class="fil1" x="3992.4" y="15007.6" width="1000" height="1000"/>
   <rect class="fil1" x="5992.4" y="15007.6" width="1000" height="1000"/>
   <rect class="fil1" x="7992.4" y="15007.6" width="1000" height="1000"/>
   <rect class="fil1" x="9992.4" y="15007.6" width="1000" height="1000"/>
   <rect class="fil1" x="11992.4" y="15007.6" width="1000" height="1000"/>
   <rect class="fil1" x="13992.4" y="15007.6" width="1000" height="1000"/>
   <rect class="fil1" x="15992.4" y="15007.6" width="1000" height="1000"/>
   <rect class="fil1" x="17992.4" y="15007.6" width="1000" height="1000"/>
   <rect class="fil1" x="-7.6" y="17007.6" width="1000" height="1000"/>
   <rect class="fil1" x="1992.4" y="17007.6" width="1000" height="1000"/>
   <rect class="fil1" x="3992.4" y="17007.6" width="1000" height="1000"/>
   <rect class="fil1" x="5992.4" y="17007.6" width="1000" height="1000"/>
   <rect class="fil1" x="7992.4" y="17007.6" width="1000" height="1000"/>
   <rect class="fil1" x="9992.4" y="17007.6" width="1000" height="1000"/>
   <rect class="fil1" x="11992.4" y="17007.6" width="1000" height="1000"/>
   <rect class="fil1" x="13992.4" y="17007.6" width="1000" height="1000"/>
   <rect class="fil1" x="15992.4" y="17007.6" width="1000" height="1000"/>
   <rect class="fil1" x="17992.4" y="17007.6" width="1000" height="1000"/>
   <rect class="fil1" x="-7.6" y="19007.6" width="1000" height="1000"/>
   <rect class="fil1" x="1992.4" y="19007.6" width="1000" height="1000"/>
   <rect class="fil1" x="3992.4" y="19007.6" width="1000" height="1000"/>
   <rect class="fil1" x="5992.4" y="19007.6" width="1000" height="1000"/>
   <rect class="fil1" x="7992.4" y="19007.6" width="1000" height="1000"/>
   <rect class="fil1" x="9992.4" y="19007.6" width="1000" height="1000"/>
   <rect class="fil1" x="11992.4" y="19007.6" width="1000" height="1000"/>
   <rect class="fil1" x="13992.4" y="19007.6" width="1000" height="1000"/>
   <rect class="fil1" x="15992.4" y="19007.6" width="1000" height="1000"/>
   <rect class="fil1" x="17992.4" y="19007.6" width="1000" height="1000"/>
   <rect class="fil1" x="992.4" y="7.6" width="1000" height="1000"/>
   <rect class="fil1" x="2992.4" y="7.6" width="1000" height="1000"/>
   <rect class="fil1" x="4992.4" y="7.6" width="1000" height="1000"/>
   <rect class="fil1" x="6992.4" y="7.6" width="1000" height="1000"/>
   <rect class="fil1" x="8992.4" y="7.6" width="1000" height="1000"/>
   <rect class="fil1" x="10992.4" y="7.6" width="1000" height="1000"/>
   <rect class="fil1" x="12992.4" y="7.6" width="1000" height="1000"/>
   <rect class="fil1" x="14992.4" y="7.6" width="1000" height="1000"/>
   <rect class="fil1" x="16992.4" y="7.6" width="1000" height="1000"/>
   <rect class="fil1" x="18992.4" y="7.6" width="1000" height="1000"/>
   <rect class="fil1" x="992.4" y="2007.6" width="1000" height="1000"/>
   <rect class="fil1" x="2992.4" y="2007.6" width="1000" height="1000"/>
   <rect class="fil1" x="4992.4" y="2007.6" width="1000" height="1000"/>
   <rect class="fil1" x="6992.4" y="2007.6" width="1000" height="1000"/>
   <rect class="fil1" x="8992.4" y="2007.6" width="1000" height="1000"/>
   <rect class="fil1" x="10992.4" y="2007.6" width="1000" height="1000"/>
   <rect class="fil1" x="12992.4" y="2007.6" width="1000" height="1000"/>
   <rect class="fil1" x="14992.4" y="2007.6" width="1000" height="1000"/>
   <rect class="fil1" x="16992.4" y="2007.6" width="1000" height="1000"/>
   <rect class="fil1" x="18992.4" y="2007.6" width="1000" height="1000"/>
   <rect class="fil1" x="992.4" y="4007.6" width="1000" height="1000"/>
   <rect class="fil1" x="2992.4" y="4007.6" width="1000" height="1000"/>
   <rect class="fil1" x="4992.4" y="4007.6" width="1000" height="1000"/>
   <rect class="fil1" x="6992.4" y="4007.6" width="1000" height="1000"/>
   <rect class="fil1" x="8992.4" y="4007.6" width="1000" height="1000"/>
   <rect class="fil1" x="10992.4" y="4007.6" width="1000" height="1000"/>
   <rect class="fil1" x="12992.4" y="4007.6" width="1000" height="1000"/>
   <rect class="fil1" x="14992.4" y="4007.6" width="1000" height="1000"/>
   <rect class="fil1" x="16992.4" y="4007.6" width="1000" height="1000"/>
   <rect class="fil1" x="18992.4" y="4007.6" width="1000" height="1000"/>
   <rect class="fil1" x="992.4" y="6007.6" width="1000" height="1000"/>
   <rect class="fil1" x="2992.4" y="6007.6" width="1000" height="1000"/>
   <rect class="fil1" x="4992.4" y="6007.6" width="1000" height="1000"/>
   <rect class="fil1" x="6992.4" y="6007.6" width="1000" height="1000"/>
   <rect class="fil1" x="8992.4" y="6007.6" width="1000" height="1000"/>
   <rect class="fil1" x="10992.4" y="6007.6" width="1000" height="1000"/>
   <rect class="fil1" x="12992.4" y="6007.6" width="1000" height="1000"/>
   <rect class="fil1" x="14992.4" y="6007.6" width="1000" height="1000"/>
   <rect class="fil1" x="16992.4" y="6007.6" width="1000" height="1000"/>
   <rect class="fil1" x="18992.4" y="6007.6" width="1000" height="1000"/>
   <rect class="fil1" x="992.4" y="8007.6" width="1000" height="1000"/>
   <rect class="fil1" x="2992.4" y="8007.6" width="1000" height="1000"/>
   <rect class="fil1" x="4992.4" y="8007.6" width="1000" height="1000"/>
   <rect class="fil1" x="6992.4" y="8007.6" width="1000" height="1000"/>
   <rect class="fil1" x="8992.4" y="8007.6" width="1000" height="1000"/>
   <rect class="fil1" x="10992.4" y="8007.6" width="1000" height="1000"/>
   <rect class="fil1" x="12992.4" y="8007.6" width="1000" height="1000"/>
   <rect class="fil1" x="14992.4" y="8007.6" width="1000" height="1000"/>
   <rect class="fil1" x="16992.4" y="8007.6" width="1000" height="1000"/>
   <rect class="fil1" x="18992.4" y="8007.6" width="1000" height="1000"/>
   <rect class="fil1" x="992.4" y="10007.6" width="1000" height="1000"/>
   <rect class="fil1" x="2992.4" y="10007.6" width="1000" height="1000"/>
   <rect class="fil1" x="4992.4" y="10007.6" width="1000" height="1000"/>
   <rect class="fil1" x="6992.4" y="10007.6" width="1000" height="1000"/>
   <rect class="fil1" x="8992.4" y="10007.6" width="1000" height="1000"/>
   <rect class="fil1" x="10992.4" y="10007.6" width="1000" height="1000"/>
   <rect class="fil1" x="12992.4" y="10007.6" width="1000" height="1000"/>
   <rect class="fil1" x="14992.4" y="10007.6" width="1000" height="1000"/>
   <rect class="fil1" x="16992.4" y="10007.6" width="1000" height="1000"/>
   <rect class="fil1" x="18992.4" y="10007.6" width="1000" height="1000"/>
   <rect class="fil1" x="992.4" y="12007.6" width="1000" height="1000"/>
   <rect class="fil1" x="2992.4" y="12007.6" width="1000" height="1000"/>
   <rect class="fil1" x="4992.4" y="12007.6" width="1000" height="1000"/>
   <rect class="fil1" x="6992.4" y="12007.6" width="1000" height="1000"/>
   <rect class="fil1" x="8992.4" y="12007.6" width="1000" height="1000"/>
   <rect class="fil1" x="10992.4" y="12007.6" width="1000" height="1000"/>
   <rect class="fil1" x="12992.4" y="12007.6" width="1000" height="1000"/>
   <rect class="fil1" x="14992.4" y="12007.6" width="1000" height="1000"/>
   <rect class="fil1" x="16992.4" y="12007.6" width="1000" height="1000"/>
   <rect class="fil1" x="18992.4" y="12007.6" width="1000" height="1000"/>
   <rect class="fil1" x="992.4" y="14007.6" width="1000" height="1000"/>
   <rect class="fil1" x="2992.4" y="14007.6" width="1000" height="1000"/>
   <rect class="fil1" x="4992.4" y="14007.6" width="1000" height="1000"/>
   <rect class="fil1" x="6992.4" y="14007.6" width="1000" height="1000"/>
   <rect class="fil1" x="8992.4" y="14007.6" width="1000" height="1000"/>
   <rect class="fil1" x="10992.4" y="14007.6" width="1000" height="1000"/>
   <rect class="fil1" x="12992.4" y="14007.6" width="1000" height="1000"/>
   <rect class="fil1" x="14992.4" y="14007.6" width="1000" height="1000"/>
   <rect class="fil1" x="16992.4" y="14007.6" width="1000" height="1000"/>
   <rect class="fil1" x="18992.4" y="14007.6" width="1000" height="1000"/>
   <rect class="fil1" x="992.4" y="16007.6" width="1000" height="1000"/>
   <rect class="fil1" x="2992.4" y="16007.6" width="1000" height="1000"/>
   <rect class="fil1" x="4992.4" y="16007.6" width="1000" height="1000"/>
   <rect class="fil1" x="6992.4" y="16007.6" width="1000" height="1000"/>
   <rect class="fil1" x="8992.4" y="16007.6" width="1000" height="1000"/>
   <rect class="fil1" x="10992.4" y="16007.6" width="1000" height="1000"/>
   <rect class="fil1" x="12992.4" y="16007.6" width="1000" height="1000"/>
   <rect class="fil1" x="14992.4" y="16007.6" width="1000" height="1000"/>
   <rect class="fil1" x="16992.4" y="16007.6" width="1000" height="1000"/>
   <rect class="fil1" x="18992.4" y="16007.6" width="1000" height="1000"/>
   <rect class="fil1" x="992.4" y="18007.6" width="1000" height="1000"/>
   <rect class="fil1" x="2992.4" y="18007.6" width="1000" height="1000"/>
   <rect class="fil1" x="4992.4" y="18007.6" width="1000" height="1000"/>
   <rect class="fil1" x="6992.4" y="18007.6" width="1000" height="1000"/>
   <rect class="fil1" x="8992.4" y="18007.6" width="1000" height="1000"/>
   <rect class="fil1" x="10992.4" y="18007.6" width="1000" height="1000"/>
   <rect class="fil1" x="12992.4" y="18007.6" width="1000" height="1000"/>
   <rect class="fil1" x="14992.4" y="18007.6" width="1000" height="1000"/>
   <rect class="fil1" x="16992.4" y="18007.6" width="1000" height="1000"/>
   <rect class="fil1" x="18992.4" y="18007.6" width="1000" height="1000"/>
   <rect class="fil0" x="992.4" y="1007.6" width="1000" height="1000"/>
   <rect class="fil0" x="2992.4" y="1007.6" width="1000" height="1000"/>
   <rect class="fil0" x="4992.4" y="1007.6" width="1000" height="1000"/>
   <rect class="fil0" x="6992.4" y="1007.6" width="1000" height="1000"/>
   <rect class="fil0" x="8992.4" y="1007.6" width="1000" height="1000"/>
   <rect class="fil0" x="10992.4" y="1007.6" width="1000" height="1000"/>
   <rect class="fil0" x="12992.4" y="1007.6" width="1000" height="1000"/>
   <rect class="fil0" x="14992.4" y="1007.6" width="1000" height="1000"/>
   <rect class="fil0" x="16992.4" y="1007.6" width="1000" height="1000"/>
   <rect class="fil0" x="18992.4" y="1007.6" width="1000" height="1000"/>
   <rect class="fil0" x="992.4" y="3007.6" width="1000" height="1000"/>
   <rect class="fil0" x="2992.4" y="3007.6" width="1000" height="1000"/>
   <rect class="fil0" x="4992.4" y="3007.6" width="1000" height="1000"/>
   <rect class="fil0" x="6992.4" y="3007.6" width="1000" height="1000"/>
   <rect class="fil0" x="8992.4" y="3007.6" width="1000" height="1000"/>
   <rect class="fil0" x="10992.4" y="3007.6" width="1000" height="1000"/>
   <rect class="fil0" x="12992.4" y="3007.6" width="1000" height="1000"/>
   <rect class="fil0" x="14992.4" y="3007.6" width="1000" height="1000"/>
   <rect class="fil0" x="16992.4" y="3007.6" width="1000" height="1000"/>
   <rect class="fil0" x="18992.4" y="3007.6" width="1000" height="1000"/>
   <rect class="fil0" x="992.4" y="5007.6" width="1000" height="1000"/>
   <rect class="fil0" x="2992.4" y="5007.6" width="1000" height="1000"/>
   <rect class="fil0" x="4992.4" y="5007.6" width="1000" height="1000"/>
   <rect class="fil0" x="6992.4" y="5007.6" width="1000" height="1000"/>
   <rect class="fil0" x="8992.4" y="5007.6" width="1000" height="1000"/>
   <rect class="fil0" x="10992.4" y="5007.6" width="1000" height="1000"/>
   <rect class="fil0" x="12992.4" y="5007.6" width="1000" height="1000"/>
   <rect class="fil0" x="14992.4" y="5007.6" width="1000" height="1000"/>
   <rect class="fil0" x="16992.4" y="5007.6" width="1000" height="1000"/>
   <rect class="fil0" x="18992.4" y="5007.6" width="1000" height="1000"/>
   <rect class="fil0" x="992.4" y="7007.6" width="1000" height="1000"/>
   <rect class="fil0" x="2992.4" y="7007.6" width="1000" height="1000"/>
   <rect class="fil0" x="4992.4" y="7007.6" width="1000" height="1000"/>
   <rect class="fil0" x="6992.4" y="7007.6" width="1000" height="1000"/>
   <rect class="fil0" x="8992.4" y="7007.6" width="1000" height="1000"/>
   <rect class="fil0" x="10992.4" y="7007.6" width="1000" height="1000"/>
   <rect class="fil0" x="12992.4" y="7007.6" width="1000" height="1000"/>
   <rect class="fil0" x="14992.4" y="7007.6" width="1000" height="1000"/>
   <rect class="fil0" x="16992.4" y="7007.6" width="1000" height="1000"/>
   <rect class="fil0" x="18992.4" y="7007.6" width="1000" height="1000"/>
   <rect class="fil0" x="992.4" y="9007.6" width="1000" height="1000"/>
   <rect class="fil0" x="2992.4" y="9007.6" width="1000" height="1000"/>
   <rect class="fil0" x="4992.4" y="9007.6" width="1000" height="1000"/>
   <rect class="fil0" x="6992.4" y="9007.6" width="1000" height="1000"/>
   <rect class="fil0" x="8992.4" y="9007.6" width="1000" height="1000"/>
   <rect class="fil0" x="10992.4" y="9007.6" width="1000" height="1000"/>
   <rect class="fil0" x="12992.4" y="9007.6" width="1000" height="1000"/>
   <rect class="fil0" x="14992.4" y="9007.6" width="1000" height="1000"/>
   <rect class="fil0" x="16992.4" y="9007.6" width="1000" height="1000"/>
   <rect class="fil0" x="18992.4" y="9007.6" width="1000" height="1000"/>
   <rect class="fil0" x="992.4" y="11007.6" width="1000" height="1000"/>
   <rect class="fil0" x="2992.4" y="11007.6" width="1000" height="1000"/>
   <rect class="fil0" x="4992.4" y="11007.6" width="1000" height="1000"/>
   <rect class="fil0" x="6992.4" y="11007.6" width="1000" height="1000"/>
   <rect class="fil0" x="8992.4" y="11007.6" width="1000" height="1000"/>
   <rect class="fil0" x="10992.4" y="11007.6" width="1000" height="1000"/>
   <rect class="fil0" x="12992.4" y="11007.6" width="1000" height="1000"/>
   <rect class="fil0" x="14992.4" y="11007.6" width="1000" height="1000"/>
   <rect class="fil0" x="16992.4" y="11007.6" width="1000" height="1000"/>
   <rect class="fil0" x="18992.4" y="11007.6" width="1000" height="1000"/>
   <rect class="fil0" x="992.4" y="13007.6" width="1000" height="1000"/>
   <rect class="fil0" x="2992.4" y="13007.6" width="1000" height="1000"/>
   <rect class="fil0" x="4992.4" y="13007.6" width="1000" height="1000"/>
   <rect class="fil0" x="6992.4" y="13007.6" width="1000" height="1000"/>
   <rect class="fil0" x="8992.4" y="13007.6" width="1000" height="1000"/>
   <rect class="fil0" x="10992.4" y="13007.6" width="1000" height="1000"/>
   <rect class="fil0" x="12992.4" y="13007.6" width="1000" height="1000"/>
   <rect class="fil0" x="14992.4" y="13007.6" width="1000" height="1000"/>
   <rect class="fil0" x="16992.4" y="13007.6" width="1000" height="1000"/>
   <rect class="fil0" x="18992.4" y="13007.6" width="1000" height="1000"/>
   <rect class="fil0" x="992.4" y="15007.6" width="1000" height="1000"/>
   <rect class="fil0" x="2992.4" y="15007.6" width="1000" height="1000"/>
   <rect class="fil0" x="4992.4" y="15007.6" width="1000" height="1000"/>
   <rect class="fil0" x="6992.4" y="15007.6" width="1000" height="1000"/>
   <rect class="fil0" x="8992.4" y="15007.6" width="1000" height="1000"/>
   <rect class="fil0" x="10992.4" y="15007.6" width="1000" height="1000"/>
   <rect class="fil0" x="12992.4" y="15007.6" width="1000" height="1000"/>
   <rect class="fil0" x="14992.4" y="15007.6" width="1000" height="1000"/>
   <rect class="fil0" x="16992.4" y="15007.6" width="1000" height="1000"/>
   <rect class="fil0" x="18992.4" y="15007.6" width="1000" height="1000"/>
   <rect class="fil0" x="992.4" y="17007.6" width="1000" height="1000"/>
   <rect class="fil0" x="2992.4" y="17007.6" width="1000" height="1000"/>
   <rect class="fil0" x="4992.4" y="17007.6" width="1000" height="1000"/>
   <rect class="fil0" x="6992.4" y="17007.6" width="1000" height="1000"/>
   <rect class="fil0" x="8992.4" y="17007.6" width="1000" height="1000"/>
   <rect class="fil0" x="10992.4" y="17007.6" width="1000" height="1000"/>
   <rect class="fil0" x="12992.4" y="17007.6" width="1000" height="1000"/>
   <rect class="fil0" x="14992.4" y="17007.6" width="1000" height="1000"/>
   <rect class="fil0" x="16992.4" y="17007.6" width="1000" height="1000"/>
   <rect class="fil0" x="18992.4" y="17007.6" width="1000" height="1000"/>
   <rect class="fil0" x="992.4" y="19007.6" width="1000" height="1000"/>
   <rect class="fil0" x="2992.4" y="19007.6" width="1000" height="1000"/>
   <rect class="fil0" x="4992.4" y="19007.6" width="1000" height="1000"/>
   <rect class="fil0" x="6992.4" y="19007.6" width="1000" height="1000"/>
   <rect class="fil0" x="8992.4" y="19007.6" width="1000" height="1000"/>
   <rect class="fil0" x="10992.4" y="19007.6" width="1000" height="1000"/>
   <rect class="fil0" x="12992.4" y="19007.6" width="1000" height="1000"/>
   <rect class="fil0" x="14992.4" y="19007.6" width="1000" height="1000"/>
   <rect class="fil0" x="16992.4" y="19007.6" width="1000" height="1000"/>
   <rect class="fil0" x="18992.4" y="19007.6" width="1000" height="1000"/>
  </g>
 </g>
</svg>
