<?xml version="1.0" encoding="UTF-8"?>
<!DOCTYPE svg PUBLIC "-//W3C//DTD SVG 1.1//EN" "http://www.w3.org/Graphics/SVG/1.1/DTD/svg11.dtd">
<!-- Creator: CorelDRAW -->
<svg xmlns="http://www.w3.org/2000/svg" xml:space="preserve" width="210mm" height="110mm" version="1.1" style="shape-rendering:geometricPrecision; text-rendering:geometricPrecision; image-rendering:optimizeQuality; fill-rule:evenodd; clip-rule:evenodd"
viewBox="0 0 21000 11000"
 xmlns:xlink="http://www.w3.org/1999/xlink"
 xmlns:xodm="http://www.corel.com/coreldraw/odm/2003">
 <defs>
  <style type="text/css">
   <![CDATA[
    .fil0 {fill:#FEFEFE;fill-rule:nonzero}
   ]]>
  </style>
 </defs>
 <g id="Capa_x0020_1">
  <metadata id="CorelCorpID_0Corel-Layer"/>
  <g id="_2216457839264">
   <g>
    <path class="fil0" d="M8124.85 678.86c45.32,62.94 86.52,116.15 117.53,149.01 46.28,52.31 55.09,68.47 55.09,139.75 0,22.23 -1.38,69.88 -63.42,69.88 -17.57,-1.85 -47.65,-18.04 -63.87,-25.9 -16.67,-6.96 -159.2,-45.38 -324.86,-45.38 -132.85,0 -172.64,37.04 -172.64,82.39 0,60.17 126.34,101.34 241.11,101.34 38.42,0 62.02,-6.93 64.8,-8.33 26.83,-6.93 36.54,-9.71 46.3,-9.71 48.1,0 132.82,49.05 132.82,99.96 0,49.5 -68.5,82.39 -143.93,82.39 -216.11,0 -403.54,-119.41 -403.54,-243.89 0,-11.11 1.4,-20.37 3.73,-28.68 31.46,-93.03 128.64,-115.25 235.53,-137.45 93.03,-17.59 213.33,-17.59 269.8,-31.01 18.97,-5.56 25.9,-8.33 25.9,-16.19 0,-16.19 -34.24,-78.21 -79.11,-150.87 -183.25,80.51 -204.1,83.29 -245.3,83.29 -90.7,0 -217.96,-58.76 -217.96,-128.64l0 -2.78c0,-38.42 8.81,-46.75 15.29,-46.75 6.96,0 13.89,8.33 17.59,13.89 2.78,4.63 6.93,8.33 12.49,12.49 24.53,18.97 84.69,28.71 139.3,28.71 45.83,0 103.19,-6.96 226.27,-43.97 -23.12,-36.57 -48.13,-74.98 -73.58,-113.37 -23.57,10.64 -83.74,31.46 -129.12,31.46 -49.05,0 -171.24,-42.57 -190.21,-155.02 0,-2.78 -1.38,-4.15 -1.38,-5.56 0,-5.08 4.18,-7.86 6.96,-7.86 4.15,0 9.26,2.78 14.79,6.96 38.42,28.68 86.55,32.86 135.6,32.86 30.08,0 57.84,-2.78 90.25,-9.71 -37.04,-55.06 -72.2,-104.14 -100.89,-143.46 -15.29,-19.42 -45.38,-29.16 -67.12,-29.16 -11.11,0 -19.42,1.38 -23.57,5.56 -7.88,6.96 -13.41,10.64 -17.59,10.64 -1.38,0 -2.78,-2.33 -2.78,-5.11 0,-5.56 2.78,-13.89 5.53,-23.12 20.37,-56.46 58.79,-67.57 131.42,-67.57 76.39,0 101.36,34.71 104.14,79.59 1.38,20.37 5.53,35.64 12.04,58.76 9.71,29.16 22.2,58.79 37.04,90.7 2.78,-1.38 50.91,-18.97 62.94,-29.16 4.63,-2.78 8.78,-6.93 15.24,-8.31 4.18,-0.93 11.14,-0.93 20.37,-0.93 66.17,0 75.43,32.86 75.43,55.06 0,24.08 -1.38,36.57 -118,88.87 22.2,39.34 46.75,79.14 71.73,117.55 37.04,-13.41 56.01,-26.38 62.47,-32.39 2.8,-3.23 4.18,-7.41 4.18,-10.19 0,-17.59 -32.86,-39.79 -61.54,-58.76 -1.38,0 -13.89,-7.86 -13.89,-13.41 0,-2.78 3.25,-4.15 6.01,-4.15 4.18,0 9.26,2.3 14.79,4.15 37.04,14.79 82.39,29.61 126.34,31.01 7.88,0 17.59,-2.78 25.45,-2.78l6.96 -0.01c25,5.56 43.97,8.33 43.97,50.91 0,41.2 -32.89,58.76 -69.88,74.06l-93.02 38.34z"/>
    <g>
     <path class="fil0" d="M9369.29 879.89c5.53,-1.38 8.31,-1.38 11.11,-1.38 2.78,0 6.96,0 10.64,1.38 27.75,6.93 62.94,42.57 62.94,93 0,46.75 -35.16,68.95 -79.14,68.95 -43.95,0 -83.29,-23.6 -97.16,-31.94 -81.02,111.07 -123.14,143.93 -183.28,143.93 -24.98,0 -46.73,-8.33 -63.39,-22.23 -74.96,-57.39 -102.74,-97.18 -102.74,-137.9 0,-47.68 25.9,-83.29 157.32,-227.22 -29.61,-80.99 -49.05,-183.25 -49.05,-312.39 0,-22.23 0,-44.87 1.85,-69.88 0,-18.97 0,-38.39 -3.25,-57.39 -1.38,-9.71 -2.78,-18.97 -2.78,-24.98 0,-4.15 0,-7.86 2.78,-7.86 7.88,0 53.68,47.68 64.35,132.82 5.53,115.23 25.9,202.7 57.84,269.8 79.11,-72.65 168.43,-138.38 258.68,-182.35 8.33,-24.53 11.14,-47.68 11.14,-64.32 0,-86.07 -46.75,-88.85 -66.17,-88.85 -9.71,0 -18.97,1.38 -27.31,2.78 -7.88,1.38 -14.79,2.78 -20.37,2.78 -6.96,0 -9.71,-1.38 -9.71,-5.56 0,-7.41 32.86,-63.39 115.25,-63.39 50.46,0 141.16,53.68 141.16,138.35 0,10.19 -1.38,20.82 -4.18,32.86 18.97,-2.33 36.59,-3.7 56.01,-3.7 178.17,0 397.06,132.82 397.06,339.22 0,385.05 -657.6,464.63 -703.9,464.63 -8.33,0 -12.49,0 -12.49,-2.78 0,-4.63 13.86,-11.11 39.79,-19.42 209.63,-69.88 505.35,-260.09 505.35,-485.01 0,-129.57 -97.16,-242.04 -249.45,-242.04 -16.19,0 -33.79,1.4 -50.46,4.15 -35.61,93.03 -102.74,232.78 -174.92,355.89l6.48 0.02 0 0.03zm-255.93 -47.66c-65.7,88.85 -70.33,120.31 -70.33,135.6 0,40.72 31.91,54.61 42.57,55.99 6.01,1.38 10.19,1.38 15.29,1.38 34.71,0 49.5,-16.67 94.88,-79.14 -30.58,-30.53 -57.88,-67.55 -82.41,-113.83l0 0zm72.65 -85.16c23.12,37.04 51.83,64.8 80.51,86.55 46.75,-80.99 94.43,-174.02 124.51,-246.67 -75.45,42.59 -144.88,97.2 -205.02,160.12z"/>
    </g>
    <path class="fil0" d="M10712.24 1157.88c-28.71,0 -46.75,-2.78 -46.75,-6.93 0,-3.7 14.34,-7.86 46.75,-12.04 302.66,-35.64 635.4,-222.14 635.4,-434.08 0,-117.55 -105.04,-155.97 -186.06,-155.97 -127.74,0 -226.27,84.69 -320.7,172.61 -35.61,31.01 -65.25,62.47 -84.69,80.06 -45.38,39.79 -74.96,59.24 -139.3,59.24 -71.25,0 -211.03,-43.5 -211.03,-127.26 0,-1.38 0,-20.82 6.96,-20.82 3.7,0 7.88,3.23 13.41,4.15 22.23,6.01 49.05,13.89 79.59,13.89 43.5,0 105.04,-25 218.92,-86.07 180.95,-94.4 301.28,-153.17 432.7,-153.17 130.04,0 361.45,74.96 361.45,243.42 0,192.99 -240.67,422.96 -773.77,422.96l-32.88 0.01z"/>
    <g>
     <path class="fil0" d="M12113.92 1013.02c-101.34,0 -136.05,-162.43 -136.05,-196.66 0,-164.31 199.47,-350.78 390.13,-350.78 194.36,0 325.78,149.49 325.78,291.09 0,83.77 -43.02,167.98 -141.61,240.64 -90.25,67.12 -270.25,115.7 -321.63,115.7 -1.85,0 -2.78,-0.93 -2.78,-0.93 0,-1.4 12.94,-7.41 35.16,-17.12 129.12,-57.39 317,-205 317,-370.68 0,-127.74 -99.96,-216.59 -227.25,-216.59 -12.49,0 -36.54,2.78 -62.44,8.31 0.9,0.93 69.4,44.42 69.4,112.92 0,23.12 -5.08,34.24 -23.12,68.5 -28.2,53.68 -86.55,147.64 -117.08,210.11 -25.9,56.47 -51.8,105.49 -105.51,105.49l0 0zm-70.78 -239.71c0,72.65 48.58,120.78 64.32,120.78 7.41,0 15.29,-5.11 22.67,-12.96 24.08,-24.53 118,-206.85 131.42,-273.95 3.23,-14.34 3.7,-27.75 3.7,-41.2 0,-15.27 -1.38,-29.61 -5.56,-41.2 -111.98,37.5 -216.55,142.57 -216.55,248.53z"/>
    </g>
    <path class="fil0" d="M13507.45 187.6c3.23,-11.56 44.87,-18.97 90.22,-18.97 170.76,0 236.03,78.69 236.03,160.13 0,54.61 -41.65,88.85 -87,88.85 -6.46,0 -13.86,-1.38 -20.82,-3.23 -43.5,-11.56 -73.13,-39.79 -115.7,-45.35 -6.01,0 -13.89,-1.85 -22.67,-1.85 -91.63,0 -155.5,55.09 -155.5,143.93 0,7.41 0,13.44 1.38,17.59 4.63,22.2 14.79,43.02 31.01,62.47 408.15,-198.99 472.02,-212.41 609.94,-212.41 273.95,0 296.2,130.49 296.2,172.14 0,92.1 -109.22,262.86 -382.27,262.86 -225.37,0 -396.13,-110.15 -396.13,-120.33 0,-1.38 0,-1.38 1.83,-1.38 3.7,0 23.15,7.41 39.34,10.19 49.05,10.64 117.08,20.82 188.83,20.82 278.58,0 367.9,-148.09 367.9,-204.55 0,-68.5 -68.5,-86.07 -160.13,-86.07 -173.99,0 -351.71,136.53 -491.49,246.19 388.75,409.58 388.75,487.79 388.75,565.07 0,52.31 -11.59,136.53 -81.92,136.53 -30.56,0 -56.01,-25 -68.05,-71.28 -38.39,-167.06 -182.32,-412.33 -305.44,-576.63 -76.84,66.65 -128.67,90.25 -198.99,90.25 -106.47,0 -201.32,-63.87 -201.32,-114.3 0,-2.78 6.96,-39.79 19.42,-51.83 2.33,-4.15 5.56,-6.01 6.96,-6.01 4.63,0 7.86,4.63 9.23,10.19 2.8,4.63 5.56,18.04 10.19,19.45 17.57,6.01 37.04,7.41 55.99,7.41 81.92,0 135.12,-22.23 218.47,-59.24 -57.84,-63.87 -69.43,-127.26 -69.43,-166.13 0,-26.86 5.56,-130.52 94.88,-130.52 16.19,0 35.61,2.78 61.07,7.41 18.97,2.78 35.16,4.63 50.01,4.63 72.65,0 108.29,-41.65 108.29,-74.06 0,-22.2 -18.04,-68.47 -94.88,-70.33 -4.63,0 -34.24,0 -34.24,-10.19l0.02 -1.45 0.02 0z"/>
    <path class="fil0" d="M15091.04 600.27c-1.85,22.2 -3.25,45.83 -3.25,70.8 0,262.86 115.7,347.08 194.36,347.08 74.06,0 92.1,-30.56 209.18,-273.05 12.04,-24.53 19.42,-33.79 22.2,-33.79 1.85,0 3.25,3.23 3.25,9.26 0,8.33 -1.38,21.75 -4.63,35.19 -10.19,57.84 -20.82,125.89 -20.82,188.36 0,56.46 7.41,96.73 26.83,136.53 4.63,7.41 6.01,16.19 6.01,24.08 0,18.97 -18.04,84.22 -132.37,84.22 -68.02,0 -131.87,-22.67 -188.36,-51.86 -180.5,-94.85 -244.37,-308.66 -262.41,-505.8 -4.63,-47.68 -16.19,-164.76 -52.28,-191.58 -4.18,-2.78 -14.82,-6.93 -17.59,-12.94l0 -1.85c0,-11.59 38.42,-14.82 38.42,-14.82 59.72,0 181.42,82.84 181.42,177.72l-0.02 12.45 0.06 0zm867.7 247.58c-40.27,-24.05 -118.96,-29.61 -185.13,-29.61 -30.08,0 -57.84,0.93 -77.28,2.78 -6.01,0 -10.64,1.38 -15.29,1.38 -6.96,0 -10.16,-1.38 -10.16,-4.15 0,-2.78 13.41,-10.64 22.2,-15.27 179.1,-69.43 213.78,-82.39 213.78,-117.08 0,-56.46 -87.89,-166.13 -174.92,-174.94 -30.08,-2.78 -38.87,-7.41 -38.87,-12.04 0,-6.01 37.04,-20.82 90.7,-20.82 126.34,0 262.41,89.32 323.03,203.62 6.01,13.41 10.64,35.64 10.64,56.46 0,11.59 -1.38,128.67 -89.32,128.67 -23.11,-0.01 -48.56,-7.42 -69.38,-19z"/>
    <g>
     <path class="fil0" d="M16672.48 264.68c68.05,0 158.3,124.94 158.3,211.96 0,65.72 -26.38,175.39 -41.17,240.64 -15.29,59.24 -39.79,160.13 -39.79,221.22 0,19.45 4.15,41.2 12.94,41.2 4.63,0 13.44,-10.19 22.23,-38.89 41.65,-124.04 114.3,-287.39 122.16,-287.39 0.93,0 0.93,1.4 0.93,4.15 0,7.86 -4.18,27.31 -8.78,44.9 -41.67,162.9 -50.01,311.47 -50.01,400.31 0,44.87 0.93,87.47 0.93,114.3 0,74.06 -45.83,83.29 -71.25,83.29 -82.84,0 -139.3,-178.17 -139.3,-271.65 0,-51.83 7.41,-112.47 18.97,-194.36 7.88,-57.84 19.42,-123.11 28.71,-185.13 10.16,-63.87 17.57,-124.94 19.42,-173.54 0,-24.08 -1.85,-151.79 -42.12,-185.58 -2.78,-3.23 -16.19,-12.04 -16.19,-18.04l-0.03 -1.39c0,-3.23 6.01,-6.01 22.2,-6.01l1.85 0.01zm846.88 920.01c4.63,-6.01 10.19,-13.41 10.19,-20.82 0,-16.19 -62.47,-51.83 -76.84,-59.24 -13.41,20.82 -102.29,155.5 -252.68,155.5 -103.19,0 -198.07,-84.69 -198.07,-154.12 0,-16.19 2.33,-123.08 268.42,-123.08 33.79,0 66.17,2.78 97.66,6.01 24.98,-62.47 30.98,-127.74 30.98,-197.62l0 -25.45c0,-57.84 -4.6,-133.27 -7.41,-211.96 -63.39,22.23 -129.12,50.46 -192.99,73.1 -17.57,5.56 -43.95,11.59 -70.8,11.59 -57.84,0 -173.54,-22.23 -173.54,-87.47 0,-4.63 1.4,-7.41 4.18,-7.41 8.78,0 25.45,11.56 40.24,12.96l17.6 -0.01c59.69,0 114.3,-20.37 185.58,-47.2l188.36 -69.88c-7.41,-115.7 -12.04,-207.33 -86.07,-207.33l-12.96 0.01c-9.26,0 -12.49,-1.85 -12.49,-4.63 0,-10.19 30.06,-62.02 77.28,-62.02 69.88,0 175.39,69.43 175.39,135.12 0,11.56 -1.83,24.53 -6.46,41.2 -2.33,10.64 -2.33,18.04 -3.7,28.23l-1.85 11.56c16.22,3.25 25,4.63 44.42,4.63l15.3 0c17.57,0 124.04,3.23 124.04,72.65 0,34.24 -31.01,47.68 -57.84,50.43 -23.6,1.85 -64.8,4.63 -88.87,8.81 -14.34,4.63 -29.63,7.86 -43.05,10.64 -2.78,56.46 -4.63,112.92 -4.63,168.91l0 57.84c1.85,48.6 3.25,90.7 3.25,130.52 0,59.24 -4.63,86.07 -18.04,126.34 32.86,8.81 285.09,81.44 285.09,204.55 0,40.24 -31.01,65.72 -75.91,65.72 -31.01,0 -77.28,-10.64 -101.84,-15.29 -12.04,-2.78 -26.83,-2.78 -41.65,-2.78 -7.88,0 -67.12,0 -155.97,24.98 -13.41,4.63 -20.82,6.01 -26.83,6.01l-2.78 -0.01c-4.18,0 -6.01,-1.38 -6.01,-3.23 0,-2.78 10.16,-9.71 23.57,-18.97 26.86,-13.41 117.08,-69.43 123.08,-81.92 0,-1.38 1.4,-2.3 1.4,-2.3l3.25 -4.57zm-332.24 -149.94c-29.63,0 -133.3,14.82 -133.3,57.84 0,18.04 33.79,55.06 107.82,55.06 78.69,0 130.97,-37.02 169.39,-89.32 -45.83,-14.8 -95.33,-22.21 -143.91,-23.58l0 0zm458.15 -750.65c-43.97,-71.25 -70.8,-102.26 -122.63,-123.08 -3.25,-1.38 -4.63,-1.38 -4.63,-3.23 0,-1.4 6.01,-2.78 8.78,-4.15 12.04,-3.25 26.86,-4.63 39.79,-4.63 31.46,0 160.6,8.81 160.6,97.66 0,36.09 -24.08,57.84 -47.68,57.84 -13.43,-0.04 -24.99,-5.6 -34.23,-20.41l0 0zm120.31 -68.03c-67.12,-87.47 -71.31,-96.71 -123.14,-116.15 -4.15,-1.4 -8.78,-2.78 -8.78,-5.56 0,-1.85 2.78,-3.25 6.96,-4.63 15.26,-2.77 32.86,-6 50.9,-6 45.83,0 154.12,13.41 154.12,96.71 0,39.79 -31.46,54.61 -44.42,54.61 -11.59,-0.01 -25.46,-6.01 -35.64,-18.98z"/>
    </g>
   </g>
   <g>
    <path class="fil0" d="M20013.53 1582.25l-5650.6 0 0 1091.7 2169.53 0c-46.75,623.38 -128.67,1337.89 -253.15,1335.14 -273.05,-137.45 -811.27,-385.5 -1059.76,-496.09 -342.48,-147.19 -703.45,-243.42 -764.06,-245.75 -17.59,0 -34.71,7.86 -35.19,24.98 0,26.38 8.33,26.38 109.22,98.58 306.84,198.52 970.44,640.03 1476.72,1130.11 109.67,98.11 141.63,176.79 138.85,280.46 -3.25,121.26 -430.4,2169.98 -2601.33,3426.91 -27.28,16.19 -237.41,131.89 -238.34,149.49 -0.45,17.59 7.43,60.62 67.57,62.47 34.26,0.48 444.76,-118.45 962.61,-398.46 544.7,-288.32 1557.26,-927.42 2251.92,-2613.79 18.94,-51.38 55.06,-119.41 105.99,-118 113.37,2.78 309.11,431.77 374.39,598.38 244.34,569.22 268.42,630.32 475.75,636.32 224.92,5.56 351.71,-207.33 357.74,-398.01 13.86,-535.89 -396.16,-1048.65 -817.27,-1492.94 -134.67,-142.08 -184.65,-204.55 -180.95,-351.26 0.45,-17.12 166.61,-1033.86 188.81,-1215.28 12.51,-92.1 32.39,-249.9 54.64,-413.28l1033.82 -0.01 646.54 0c0,1458.22 0,2793.84 -95.33,3506.05 -128.67,928.79 -284.61,1044.02 -765.92,1044.02 -311.92,0 -528.96,-61.09 -678.44,-101.81l285.54 1301.83c826.98,20.82 1783.11,47.68 2095.02,-1009.81 325.31,-1106.02 366,-4570.39 345.68,-5831.95z"/>
    <g>
     <path class="fil0" d="M6811.88 7247c-44.87,0 -284.61,-38.87 -310.54,-38.87 -38.39,0 -38.39,19.42 -38.39,45.35 0,57.84 84.19,497.95 193.89,497.95 25.93,0 116.63,-116.15 149.01,-135.6 44.87,-25.9 879.74,-200.85 899.19,-200.85 77.76,0 84.22,26.38 109.67,161.98 25.93,116.6 123.08,136.05 142.53,136.05 142.08,0 252.23,-168.46 252.23,-285.06 0,-381.34 -517.42,-640.5 -588.67,-640.5 -19.42,0 -25.9,13.41 -25.9,25.9 0,19.42 38.87,90.7 44.87,110.12 45.83,103.66 71.76,187.88 71.76,239.26 0,45.38 -12.96,77.73 -77.76,90.7 -77.73,12.96 -368.38,19.42 -407.25,19.42 -32.86,0 -130.04,0 -130.04,-58.31 0,-25.45 13.41,-44.87 116.63,-213.33 252.2,-414.18 285.09,-459.53 355.86,-491.46 123.08,-38.87 161.98,-58.31 161.98,-129.57 0,-51.83 -25.93,-64.8 -213.33,-155.02 -26.38,-13.44 -285.09,-136.05 -323.96,-136.05 -25.45,0 -32.41,12.94 -32.41,32.39 0,12.96 6.96,84.22 6.96,103.69 0,116.15 -97.18,536.36 -116.63,607.62 -110.11,414.19 -129.55,414.19 -239.7,414.19l0 0zm2233.88 513.69c-9.71,-33.79 -60.17,-67.12 -208.25,-186.98 -145.34,-109.67 -145.34,-145.76 -191.14,-527.55 -8.78,-63.87 -54.61,-446.11 -100.41,-446.11 -18.04,0 -72.65,536.81 -99.96,636.77 -90.25,392.46 -217.04,543.77 -384.57,609.97 -710.38,56.46 -1559.59,70.33 -1685.48,-235.56 -213.78,-516.94 37.97,-1578.56 37.97,-1578.56l2264.41 0 0 -3510.22 -3130.28 0c83.29,-205 91.18,-227.7 105.99,-272.6 197.17,-68.47 235.08,-106.44 235.08,-174.47 0,-75.91 -68.02,-106.44 -128.64,-114.3l-1395.31 -113.37c-30.08,151.79 -60.62,310.99 -227.25,674.74l-1398.06 0 0 3510.2 1349.48 -4.63c2.78,26.38 5.56,53.68 7.41,83.77 21.3,339.22 -97.18,898.74 -236.93,1294.87 -307.29,912.15 -955.65,2154.71 -2891.95,3321.86l53.66 188.81c1709.08,-792.29 2889.17,-1922.41 3416.75,-3840.16 135.12,-478.05 143.46,-536.81 401.21,-729.35l20.85 -48.13 -333.67 -273.05 756.18 -2.33 0 1941.38c0,553.48 257.33,894.56 1015.81,894.56l1508.69 0c652.52,0 934.83,-184.65 1123.63,-692.79 44.42,-100.89 83.32,-223.07 115.25,-375.79 1.85,-7.41 2.33,-14.34 1.38,-20.82 0.93,-3.7 1.85,-6.48 2.78,-9.74 -0.93,0.03 -3.26,0.03 -4.63,-0.42l0 0zm-3770.76 -2474.51l-1272.65 0c-273.5,0 -273.5,-56.46 -273.5,-603.94 0,-298.03 31.91,-362.82 265.17,-362.82l1280.98 0c265.62,0 265.62,80.99 265.62,515.99 -0.01,370.7 -0.01,450.77 -265.62,450.77l0 0zm8.33 -1175.92l-1312.94 0c-257.78,0 -257.78,-63.87 -257.78,-434.55 0,-459.08 0,-507.68 257.78,-507.68l1312.94 0c257.28,0 257.28,56.46 257.28,451.22 0,434.55 0,491.01 -257.28,491.01l0 0zm1070.85 -942.23l1272.64 0c281.38,0 281.38,96.73 281.38,491.94 0,337.85 0,450.29 -281.38,450.29l-1280.98 0c-281.81,0 -281.81,-128.67 -281.81,-402.62 0.01,-442.88 0.01,-539.61 290.15,-539.61l0 0zm-290.14 1642.88c0,-361.9 0,-491.46 290.14,-491.46l1272.64 -0.01c281.38,0 281.38,121.26 281.38,475.72 0,370.71 0,491.01 -281.38,491.01l-1272.64 0.01c-290.14,0 -290.14,-120.31 -290.14,-475.27z"/>
    </g>
    <g>
     <path class="fil0" d="M14677.89 4393.9c-690.96,0 -1146.78,540.52 -1146.78,1080.61 0,484.06 349.86,773.3 547.48,773.3 315.17,0 643.76,-771 679.37,-1471.19 490.54,61.09 490.54,472.04 490.54,542.82 0,251.3 -150.42,613.2 -659.92,693.26 110.6,143.01 215.66,333.67 236.93,375.79 122.63,-39.82 317.47,-105.52 491.49,-277.23 326.26,-317.45 354.97,-618.28 354.97,-796.45 -0.01,-566.42 -432.26,-920.91 -994.08,-920.91l0 0zm-346.15 1248.57c-166.63,259.64 -225.4,289.69 -297.58,290.64 -150.89,2.33 -217.96,-216.59 -220.29,-377.16 -6.51,-466.94 470.19,-792.29 705.27,-796 32.39,-0.48 42.12,11.56 44.42,159.65 3.28,245.29 -104.11,520.64 -231.82,722.87z"/>
    </g>
    <g>
     <path class="fil0" d="M8559.8 3141.02c144.38,116.6 271.67,344.3 349.41,499.8 128.19,272.12 133.75,272.12 222.12,272.12 94.43,0 211.06,-83.29 211.06,-261.01 0,-433.18 -577.59,-555.33 -821.45,-566.45 -11.57,16.64 0.02,27.75 38.86,55.54l0 0zm332.74 -1321.73c22.23,17.12 294.32,228.15 444.29,478.08 138.83,233.23 155.5,254.98 227.2,254.98 50.46,0 222.59,-49.98 222.59,-277.2 0,-433.63 -632.62,-511.39 -877.44,-511.39 -27.75,0 -49.98,6.01 -55.54,11.56 -5.05,22.22 16.7,33.33 38.9,43.97l0 0zm4825.44 2352.33c88.87,-11.56 155.5,-17.12 155.5,-72.2 0,-61.54 -44.42,-78.21 -111.07,-100.41l-699.74 -232.78c-44.4,193.91 -110.6,516.47 -249.9,899.19 -21.75,-321.63 -38.87,-738.13 -38.87,-1126.89l1016.26 0 0 -760.81 -284.16 0c7.88,-21.27 12.96,-43.97 12.96,-69.88 0,-310.99 -410.5,-565.97 -710.35,-565.97 -22.67,0 -38.89,5.08 -44.42,21.75 0,11.11 11.11,22.23 49.98,39.34 83.29,49.5 233.26,277.2 294.32,443.81 20.37,54.13 36.09,96.71 50.01,130.97l-755.74 0c-2.78,-70.8 -2.78,-158.75 -2.78,-271.2 0,-94.4 5.53,-172.16 50.43,-227.7 11.14,-11.56 72.2,-83.29 72.2,-94.4 0,-111.52 -477.57,-194.36 -527.55,-194.36 -16.67,0 -43.97,5.08 -43.97,32.86 0,27.78 43.97,144.38 49.5,172.61 12.96,69.43 29.63,401.69 35.64,582.19l-2021.91 0 0 1504.95c0,1187.98 -149.94,1782.18 -483.16,2431.92 261.46,82.84 550.25,216.59 771.95,366.53 83.74,-172.16 138.83,-288.79 249.9,-615.98 1.38,0 2.78,0 4.18,0.48 101.81,-354.49 190.66,-854.76 206.85,-983.4l12.04 -190.66c23.12,32.39 61.09,57.39 114.75,57.39 196.22,0 196.22,-301.73 196.22,-335.04 0,-186.5 -110.62,-493.79 -138.83,-493.79 -9.71,0 -9.71,9.74 -14.79,43.52 -4.63,52.28 -23.6,234.63 -57.39,329.96 -8.33,26.38 -52.76,113.37 -87.44,191.58l30.98 -497.02 3.25 -532.21 1000.07 0c98.58,0 168.91,-2.33 205,-26.83 13.86,198.52 31.46,397.51 55.09,624.73 -77.31,-88.85 -262.89,-219.82 -277.68,-219.82 -13.86,0 -33.31,62.47 -52.28,115.23 -57.39,138.83 -139.3,354.49 -216.14,354.49 -42.57,0 -42.57,-62.47 -42.57,-95.81 0,-129.57 9.26,-383.65 23.6,-407.25 10.16,-14.79 86.52,-81.44 86.52,-100.89 0,-76.36 -378.57,-124.49 -407.22,-124.49 -19.47,0 -43.05,4.63 -43.05,24.08 0,18.97 28.71,105.52 33.34,124.49 14.31,100.41 33.79,287.39 33.79,589.12 0,441.03 -29.18,862.62 -484.08,1380.04 -18.97,14.34 -95.81,86.52 -105.52,110.12l4.63 14.34c33.79,0 445.66,-186.5 708.98,-722.87 71.76,-144.38 76.84,-158.27 115.25,-158.27 71.76,0 134.2,138.83 158.27,219.82 62.47,201.32 66.65,220.74 143.46,220.74 81.47,0 163.38,-76.81 163.38,-201.32 0,-153.17 -76.84,-220.29 -306.84,-301.73 -143.91,-48.13 -158.27,-52.76 -158.27,-119.86 0,-38.39 9.71,-254.05 76.36,-306.81 14.82,-13.89 369.31,-229.55 426.69,-263.31 65.72,-19.9 106.92,-31.46 129.59,-43.5l42.57 319.33c55.54,339.22 99.96,510.91 122.18,605.31 -142.56,192.54 -297.58,395.68 -578.49,637.73 0,0 0.45,0.93 0.9,0.93 -12.04,9.26 -21.75,17.59 -33.79,26.86 -109.19,92.55 -237.86,190.66 -391.98,296.17 243.42,121.71 459.55,271.65 692.34,481.75 94.4,-60.64 316.52,-221.67 644.66,-616.43 49.5,-65.72 115.7,-159.2 182.77,-256.83 3.25,4.63 6.01,8.31 9.26,13.41 177.69,261.01 604.86,744.17 877.44,744.17 93.95,0 177.24,-44.42 177.24,-155.5 0,-44.42 -60.17,-256.38 -71.73,-305.44 -25.93,-108.29 -56.46,-197.62 -69.88,-332.74 -0.93,-5.56 -6.01,-27.75 -16.67,-27.75 -16.67,0 -47.2,99.96 -66.65,140.68 -116.6,248.52 -255.91,94.4 -272.57,77.28 -56.91,-57.84 -222.12,-281.38 -347.53,-477.12 63.87,-96.26 108.74,-163.38 108.74,-163.38 205.02,-361.49 504.93,-1077.4 615.97,-1577.22l0 0zm-2067.24 -559.96c-50.01,0 -183.25,216.11 -222.12,254.98 -22.23,27.75 -32.89,38.87 -238.81,38.87l-366.05 -0.01 1.38 -183.73 0 -183.28 1171.3 0.01c7.86,132.82 15.24,256.86 23.12,379.02 -92.54,-111.5 -346.15,-305.86 -368.82,-305.86l0 0zm-2308.36 2845.17c0,-288.77 569.22,-3164.05 569.22,-3313.99 0,-16.67 -10.64,-33.31 -21.75,-33.31 -22.23,0 -38.87,27.31 -50.46,60.62 -211.03,599.76 -541.44,2220.44 -752.48,2709.12 -172.16,399.84 -205.5,405.39 -577.59,427.62 -55.54,5.56 -66.17,5.56 -66.17,22.23 0,11.11 60.64,21.75 88.4,27.75 411.4,93.95 460.93,377.61 477.57,572 22.2,288.77 44.42,504.9 272.12,504.9 194.36,0 233.23,-199.92 233.23,-293.87 0,-89.32 -10.61,-116.6 -122.16,-394.76 -33.29,-77.26 -49.93,-188.33 -49.93,-288.31z"/>
    </g>
   </g>
  </g>
 </g>
</svg>
